solid OpenSCAD_Model
  facet normal -1 -0 -0
    outer loop
      vertex 0 0 0
      vertex 0 0 2
      vertex 0 22.38 0
    endloop
  endfacet
  facet normal -1 0 0
    outer loop
      vertex 0 22.38 0
      vertex 0 0 2
      vertex 0 22.38 2
    endloop
  endfacet
  facet normal 0 -1 0
    outer loop
      vertex 0 0 2
      vertex 0 0 0
      vertex 47.35 0 0
    endloop
  endfacet
  facet normal 0 -1 0
    outer loop
      vertex 47.35 0 2
      vertex 0 0 2
      vertex 47.35 0 0
    endloop
  endfacet
  facet normal 0 -0 -1
    outer loop
      vertex 13.2638 18.445 0
      vertex 0 22.38 0
      vertex 47.35 22.38 0
    endloop
  endfacet
  facet normal 0 -0 -1
    outer loop
      vertex 0 0 0
      vertex 0 22.38 0
      vertex 2.7 10.77 0
    endloop
  endfacet
  facet normal 0 0 -1
    outer loop
      vertex 0 0 0
      vertex 2.7 10.77 0
      vertex 2.76363 9.75856 0
    endloop
  endfacet
  facet normal 0 0 -1
    outer loop
      vertex 37.4267 2.71592 0
      vertex 47.35 0 0
      vertex 36.4133 2.71592 0
    endloop
  endfacet
  facet normal 0 0 -1
    outer loop
      vertex 0 0 0
      vertex 2.76363 9.75856 0
      vertex 2.95353 8.76307 0
    endloop
  endfacet
  facet normal 0 0 -1
    outer loop
      vertex 0 0 0
      vertex 2.95353 8.76307 0
      vertex 3.2667 7.79923 0
    endloop
  endfacet
  facet normal 0 0 -1
    outer loop
      vertex 0 0 0
      vertex 3.2667 7.79923 0
      vertex 3.6982 6.88225 0
    endloop
  endfacet
  facet normal 0 0 -1
    outer loop
      vertex 0 0 0
      vertex 3.6982 6.88225 0
      vertex 4.24123 6.02657 0
    endloop
  endfacet
  facet normal 0 0 -1
    outer loop
      vertex 0 0 0
      vertex 4.24123 6.02657 0
      vertex 4.88722 5.24571 0
    endloop
  endfacet
  facet normal 0 0 -1
    outer loop
      vertex 0 0 0
      vertex 4.88722 5.24571 0
      vertex 5.62599 4.55196 0
    endloop
  endfacet
  facet normal 0 0 -1
    outer loop
      vertex 0 0 0
      vertex 5.62599 4.55196 0
      vertex 6.44588 3.95627 0
    endloop
  endfacet
  facet normal 0 0 -1
    outer loop
      vertex 0 0 0
      vertex 6.44588 3.95627 0
      vertex 7.33396 3.46805 0
    endloop
  endfacet
  facet normal 0 0 -1
    outer loop
      vertex 0 0 0
      vertex 7.33396 3.46805 0
      vertex 8.27623 3.09497 0
    endloop
  endfacet
  facet normal 0 0 -1
    outer loop
      vertex 0 0 0
      vertex 8.27623 3.09497 0
      vertex 9.25783 2.84294 0
    endloop
  endfacet
  facet normal 0 0 -1
    outer loop
      vertex 0 0 0
      vertex 9.25783 2.84294 0
      vertex 10.2633 2.71592 0
    endloop
  endfacet
  facet normal -0 0 -1
    outer loop
      vertex 0 0 0
      vertex 10.2633 2.71592 0
      vertex 47.35 0 0
    endloop
  endfacet
  facet normal 0 0 -1
    outer loop
      vertex 12.2822 2.84294 0
      vertex 47.35 0 0
      vertex 11.2767 2.71592 0
    endloop
  endfacet
  facet normal 0 0 -1
    outer loop
      vertex 13.2638 3.09497 0
      vertex 47.35 0 0
      vertex 12.2822 2.84294 0
    endloop
  endfacet
  facet normal 0 0 -1
    outer loop
      vertex 14.206 3.46805 0
      vertex 47.35 0 0
      vertex 13.2638 3.09497 0
    endloop
  endfacet
  facet normal 0 0 -1
    outer loop
      vertex 15.0941 3.95627 0
      vertex 47.35 0 0
      vertex 14.206 3.46805 0
    endloop
  endfacet
  facet normal 0 0 -1
    outer loop
      vertex 15.914 4.55196 0
      vertex 47.35 0 0
      vertex 15.0941 3.95627 0
    endloop
  endfacet
  facet normal 0 0 -1
    outer loop
      vertex 16.6528 5.24571 0
      vertex 47.35 0 0
      vertex 15.914 4.55196 0
    endloop
  endfacet
  facet normal 0 0 -1
    outer loop
      vertex 17.2988 6.02657 0
      vertex 47.35 0 0
      vertex 16.6528 5.24571 0
    endloop
  endfacet
  facet normal 0 0 -1
    outer loop
      vertex 17.8418 6.88225 0
      vertex 47.35 0 0
      vertex 17.2988 6.02657 0
    endloop
  endfacet
  facet normal 0 0 -1
    outer loop
      vertex 18.2733 7.79923 0
      vertex 32.5959 3.95627 0
      vertex 33.484 3.46805 0
    endloop
  endfacet
  facet normal 0 0 -1
    outer loop
      vertex 29.1035 8.76307 0
      vertex 17.8418 14.6578 0
      vertex 28.9136 9.75856 0
    endloop
  endfacet
  facet normal 0 0 -1
    outer loop
      vertex 36.4133 2.71592 0
      vertex 47.35 0 0
      vertex 35.4078 2.84294 0
    endloop
  endfacet
  facet normal 0 -0 -1
    outer loop
      vertex 5.62599 16.988 0
      vertex 0 22.38 0
      vertex 6.44588 17.5837 0
    endloop
  endfacet
  facet normal 0 0 -1
    outer loop
      vertex 32.5959 3.95627 0
      vertex 18.2733 7.79923 0
      vertex 31.776 4.55196 0
    endloop
  endfacet
  facet normal 0 0 -1
    outer loop
      vertex 31.776 4.55196 0
      vertex 18.5865 8.76307 0
      vertex 31.0372 5.24571 0
    endloop
  endfacet
  facet normal 0 0 -1
    outer loop
      vertex 31.0372 5.24571 0
      vertex 18.7764 9.75856 0
      vertex 30.3912 6.02657 0
    endloop
  endfacet
  facet normal 0 -0 -1
    outer loop
      vertex 6.44588 17.5837 0
      vertex 0 22.38 0
      vertex 7.33396 18.072 0
    endloop
  endfacet
  facet normal 0 0 -1
    outer loop
      vertex 30.3912 6.02657 0
      vertex 18.84 10.77 0
      vertex 29.8482 6.88225 0
    endloop
  endfacet
  facet normal 0 0 -1
    outer loop
      vertex 29.8482 6.88225 0
      vertex 18.7764 11.7814 0
      vertex 29.4167 7.79923 0
    endloop
  endfacet
  facet normal 0 -0 -1
    outer loop
      vertex 7.33396 18.072 0
      vertex 0 22.38 0
      vertex 8.27623 18.445 0
    endloop
  endfacet
  facet normal -0 -0 -1
    outer loop
      vertex 11.2767 18.8241 0
      vertex 0 22.38 0
      vertex 12.2822 18.6971 0
    endloop
  endfacet
  facet normal 0 -0 -1
    outer loop
      vertex 35.4078 18.6971 0
      vertex 17.8418 14.6578 0
      vertex 47.35 22.38 0
    endloop
  endfacet
  facet normal 0 -0 -1
    outer loop
      vertex 8.27623 18.445 0
      vertex 0 22.38 0
      vertex 9.25783 18.6971 0
    endloop
  endfacet
  facet normal 0 -0 -1
    outer loop
      vertex 17.8418 14.6578 0
      vertex 17.2988 15.5134 0
      vertex 47.35 22.38 0
    endloop
  endfacet
  facet normal 0 -0 -1
    outer loop
      vertex 17.2988 15.5134 0
      vertex 16.6528 16.2943 0
      vertex 47.35 22.38 0
    endloop
  endfacet
  facet normal 0 -0 -1
    outer loop
      vertex 9.25783 18.6971 0
      vertex 0 22.38 0
      vertex 10.2633 18.8241 0
    endloop
  endfacet
  facet normal 0 -0 -1
    outer loop
      vertex 16.6528 16.2943 0
      vertex 15.914 16.988 0
      vertex 47.35 22.38 0
    endloop
  endfacet
  facet normal 0 -0 -1
    outer loop
      vertex 15.914 16.988 0
      vertex 15.0941 17.5837 0
      vertex 47.35 22.38 0
    endloop
  endfacet
  facet normal -0 -0 -1
    outer loop
      vertex 10.2633 18.8241 0
      vertex 0 22.38 0
      vertex 11.2767 18.8241 0
    endloop
  endfacet
  facet normal 0 -0 -1
    outer loop
      vertex 15.0941 17.5837 0
      vertex 14.206 18.072 0
      vertex 47.35 22.38 0
    endloop
  endfacet
  facet normal -0 -0 -1
    outer loop
      vertex 12.2822 18.6971 0
      vertex 0 22.38 0
      vertex 13.2638 18.445 0
    endloop
  endfacet
  facet normal 0 -0 -1
    outer loop
      vertex 14.206 18.072 0
      vertex 13.2638 18.445 0
      vertex 47.35 22.38 0
    endloop
  endfacet
  facet normal 0 -0 -1
    outer loop
      vertex 4.88722 16.2943 0
      vertex 0 22.38 0
      vertex 5.62599 16.988 0
    endloop
  endfacet
  facet normal 0 -0 -1
    outer loop
      vertex 4.24123 15.5134 0
      vertex 0 22.38 0
      vertex 4.88722 16.2943 0
    endloop
  endfacet
  facet normal 0 -0 -1
    outer loop
      vertex 3.6982 14.6578 0
      vertex 0 22.38 0
      vertex 4.24123 15.5134 0
    endloop
  endfacet
  facet normal 0 -0 -1
    outer loop
      vertex 3.2667 13.7408 0
      vertex 0 22.38 0
      vertex 3.6982 14.6578 0
    endloop
  endfacet
  facet normal 0 -0 -1
    outer loop
      vertex 2.95353 12.7769 0
      vertex 0 22.38 0
      vertex 3.2667 13.7408 0
    endloop
  endfacet
  facet normal 0 -0 -1
    outer loop
      vertex 2.76363 11.7814 0
      vertex 0 22.38 0
      vertex 2.95353 12.7769 0
    endloop
  endfacet
  facet normal 0 -0 -1
    outer loop
      vertex 2.7 10.77 0
      vertex 0 22.38 0
      vertex 2.76363 11.7814 0
    endloop
  endfacet
  facet normal 0 0 -1
    outer loop
      vertex 28.9136 9.75856 0
      vertex 17.8418 14.6578 0
      vertex 28.85 10.77 0
    endloop
  endfacet
  facet normal 0 0 -1
    outer loop
      vertex 29.4167 7.79923 0
      vertex 18.5865 12.7769 0
      vertex 18.2733 13.7408 0
    endloop
  endfacet
  facet normal -0 -0 -1
    outer loop
      vertex 18.7764 11.7814 0
      vertex 18.5865 12.7769 0
      vertex 29.4167 7.79923 0
    endloop
  endfacet
  facet normal 0 0 -1
    outer loop
      vertex 40.356 3.46805 0
      vertex 47.35 0 0
      vertex 39.4138 3.09497 0
    endloop
  endfacet
  facet normal -0 -0 -1
    outer loop
      vertex 18.84 10.77 0
      vertex 18.7764 11.7814 0
      vertex 29.8482 6.88225 0
    endloop
  endfacet
  facet normal -0 0 -1
    outer loop
      vertex 18.7764 9.75856 0
      vertex 18.84 10.77 0
      vertex 30.3912 6.02657 0
    endloop
  endfacet
  facet normal 0 0 -1
    outer loop
      vertex 39.4138 3.09497 0
      vertex 47.35 0 0
      vertex 38.4322 2.84294 0
    endloop
  endfacet
  facet normal -0 0 -1
    outer loop
      vertex 18.5865 8.76307 0
      vertex 18.7764 9.75856 0
      vertex 31.0372 5.24571 0
    endloop
  endfacet
  facet normal -0 0 -1
    outer loop
      vertex 18.2733 7.79923 0
      vertex 18.5865 8.76307 0
      vertex 31.776 4.55196 0
    endloop
  endfacet
  facet normal 0 0 -1
    outer loop
      vertex 17.8418 14.6578 0
      vertex 29.1035 8.76307 0
      vertex 18.2733 13.7408 0
    endloop
  endfacet
  facet normal 0 0 -1
    outer loop
      vertex 17.8418 6.88225 0
      vertex 34.4262 3.09497 0
      vertex 35.4078 2.84294 0
    endloop
  endfacet
  facet normal 0 0 -1
    outer loop
      vertex 17.8418 6.88225 0
      vertex 35.4078 2.84294 0
      vertex 47.35 0 0
    endloop
  endfacet
  facet normal 0 0 -1
    outer loop
      vertex 38.4322 2.84294 0
      vertex 47.35 0 0
      vertex 37.4267 2.71592 0
    endloop
  endfacet
  facet normal 0 0 -1
    outer loop
      vertex 41.2441 3.95627 0
      vertex 47.35 0 0
      vertex 40.356 3.46805 0
    endloop
  endfacet
  facet normal 0 0 -1
    outer loop
      vertex 29.4167 7.79923 0
      vertex 18.2733 13.7408 0
      vertex 29.1035 8.76307 0
    endloop
  endfacet
  facet normal -0 0 -1
    outer loop
      vertex 44.99 10.77 0
      vertex 47.35 22.38 0
      vertex 44.9264 9.75856 0
    endloop
  endfacet
  facet normal 0 0 -1
    outer loop
      vertex 47.35 0 0
      vertex 41.2441 3.95627 0
      vertex 42.064 4.55196 0
    endloop
  endfacet
  facet normal 0 0 -1
    outer loop
      vertex 47.35 0 0
      vertex 42.064 4.55196 0
      vertex 42.8028 5.24571 0
    endloop
  endfacet
  facet normal 0 0 -1
    outer loop
      vertex 47.35 0 0
      vertex 42.8028 5.24571 0
      vertex 43.4488 6.02657 0
    endloop
  endfacet
  facet normal 0 0 -1
    outer loop
      vertex 47.35 0 0
      vertex 43.4488 6.02657 0
      vertex 43.9918 6.88225 0
    endloop
  endfacet
  facet normal 0 0 -1
    outer loop
      vertex 47.35 0 0
      vertex 43.9918 6.88225 0
      vertex 44.4233 7.79923 0
    endloop
  endfacet
  facet normal 0 0 -1
    outer loop
      vertex 47.35 0 0
      vertex 44.4233 7.79923 0
      vertex 44.7365 8.76307 0
    endloop
  endfacet
  facet normal 0 0 -1
    outer loop
      vertex 47.35 0 0
      vertex 44.7365 8.76307 0
      vertex 47.35 22.38 0
    endloop
  endfacet
  facet normal 0 0 -1
    outer loop
      vertex 44.7365 8.76307 0
      vertex 44.9264 9.75856 0
      vertex 47.35 22.38 0
    endloop
  endfacet
  facet normal -0 0 -1
    outer loop
      vertex 44.9264 11.7814 0
      vertex 47.35 22.38 0
      vertex 44.99 10.77 0
    endloop
  endfacet
  facet normal -0 0 -1
    outer loop
      vertex 44.7365 12.7769 0
      vertex 47.35 22.38 0
      vertex 44.9264 11.7814 0
    endloop
  endfacet
  facet normal -0 0 -1
    outer loop
      vertex 44.4233 13.7408 0
      vertex 47.35 22.38 0
      vertex 44.7365 12.7769 0
    endloop
  endfacet
  facet normal -0 0 -1
    outer loop
      vertex 40.356 18.072 0
      vertex 47.35 22.38 0
      vertex 41.2441 17.5837 0
    endloop
  endfacet
  facet normal 0 -0 -1
    outer loop
      vertex 44.4233 13.7408 0
      vertex 43.9918 14.6578 0
      vertex 47.35 22.38 0
    endloop
  endfacet
  facet normal 0 -0 -1
    outer loop
      vertex 43.9918 14.6578 0
      vertex 43.4488 15.5134 0
      vertex 47.35 22.38 0
    endloop
  endfacet
  facet normal 0 -0 -1
    outer loop
      vertex 43.4488 15.5134 0
      vertex 42.8028 16.2943 0
      vertex 47.35 22.38 0
    endloop
  endfacet
  facet normal 0 -0 -1
    outer loop
      vertex 42.8028 16.2943 0
      vertex 42.064 16.988 0
      vertex 47.35 22.38 0
    endloop
  endfacet
  facet normal 0 -0 -1
    outer loop
      vertex 42.064 16.988 0
      vertex 41.2441 17.5837 0
      vertex 47.35 22.38 0
    endloop
  endfacet
  facet normal 0 -0 -1
    outer loop
      vertex 33.484 18.072 0
      vertex 17.8418 14.6578 0
      vertex 34.4262 18.445 0
    endloop
  endfacet
  facet normal 0 -0 -1
    outer loop
      vertex 31.0372 16.2943 0
      vertex 17.8418 14.6578 0
      vertex 31.776 16.988 0
    endloop
  endfacet
  facet normal 0 -0 -1
    outer loop
      vertex 40.356 18.072 0
      vertex 39.4138 18.445 0
      vertex 47.35 22.38 0
    endloop
  endfacet
  facet normal 0 -0 -1
    outer loop
      vertex 39.4138 18.445 0
      vertex 38.4322 18.6971 0
      vertex 47.35 22.38 0
    endloop
  endfacet
  facet normal 0 -0 -1
    outer loop
      vertex 31.776 16.988 0
      vertex 17.8418 14.6578 0
      vertex 32.5959 17.5837 0
    endloop
  endfacet
  facet normal 0 -0 -1
    outer loop
      vertex 38.4322 18.6971 0
      vertex 37.4267 18.8241 0
      vertex 47.35 22.38 0
    endloop
  endfacet
  facet normal 0 -0 -1
    outer loop
      vertex 32.5959 17.5837 0
      vertex 17.8418 14.6578 0
      vertex 33.484 18.072 0
    endloop
  endfacet
  facet normal 0 -0 -1
    outer loop
      vertex 37.4267 18.8241 0
      vertex 36.4133 18.8241 0
      vertex 47.35 22.38 0
    endloop
  endfacet
  facet normal 0 -0 -1
    outer loop
      vertex 34.4262 18.445 0
      vertex 17.8418 14.6578 0
      vertex 35.4078 18.6971 0
    endloop
  endfacet
  facet normal 0 -0 -1
    outer loop
      vertex 36.4133 18.8241 0
      vertex 35.4078 18.6971 0
      vertex 47.35 22.38 0
    endloop
  endfacet
  facet normal 0 -0 -1
    outer loop
      vertex 30.3912 15.5134 0
      vertex 17.8418 14.6578 0
      vertex 31.0372 16.2943 0
    endloop
  endfacet
  facet normal 0 -0 -1
    outer loop
      vertex 29.8482 14.6578 0
      vertex 17.8418 14.6578 0
      vertex 30.3912 15.5134 0
    endloop
  endfacet
  facet normal 0 -0 -1
    outer loop
      vertex 29.4167 13.7408 0
      vertex 17.8418 14.6578 0
      vertex 29.8482 14.6578 0
    endloop
  endfacet
  facet normal 0 -0 -1
    outer loop
      vertex 29.1035 12.7769 0
      vertex 17.8418 14.6578 0
      vertex 29.4167 13.7408 0
    endloop
  endfacet
  facet normal 0 -0 -1
    outer loop
      vertex 28.9136 11.7814 0
      vertex 17.8418 14.6578 0
      vertex 29.1035 12.7769 0
    endloop
  endfacet
  facet normal 0 -0 -1
    outer loop
      vertex 28.85 10.77 0
      vertex 17.8418 14.6578 0
      vertex 28.9136 11.7814 0
    endloop
  endfacet
  facet normal 0 0 -1
    outer loop
      vertex 11.2767 2.71592 0
      vertex 47.35 0 0
      vertex 10.2633 2.71592 0
    endloop
  endfacet
  facet normal 0 0 -1
    outer loop
      vertex 18.2733 7.79923 0
      vertex 33.484 3.46805 0
      vertex 34.4262 3.09497 0
    endloop
  endfacet
  facet normal 0 0 -1
    outer loop
      vertex 18.2733 7.79923 0
      vertex 34.4262 3.09497 0
      vertex 17.8418 6.88225 0
    endloop
  endfacet
  facet normal 0 1 0
    outer loop
      vertex 0 22.38 0
      vertex 0 22.38 2
      vertex 47.35 22.38 0
    endloop
  endfacet
  facet normal 0 1 0
    outer loop
      vertex 47.35 22.38 0
      vertex 0 22.38 2
      vertex 47.35 22.38 2
    endloop
  endfacet
  facet normal 0 -0 1
    outer loop
      vertex 12.2822 2.84294 2
      vertex 0 0 2
      vertex 47.35 0 2
    endloop
  endfacet
  facet normal 0 0 1
    outer loop
      vertex 10.2633 18.8241 2
      vertex 11.2767 18.8241 2
      vertex 47.35 22.38 2
    endloop
  endfacet
  facet normal 0 0 1
    outer loop
      vertex 12.2822 2.84294 2
      vertex 11.2767 2.71592 2
      vertex 0 0 2
    endloop
  endfacet
  facet normal 0 -0 1
    outer loop
      vertex 0 22.38 2
      vertex 0 0 2
      vertex 2.76363 9.75856 2
    endloop
  endfacet
  facet normal 0 0 1
    outer loop
      vertex 29.1035 8.76307 2
      vertex 28.9136 9.75856 2
      vertex 17.2988 15.5134 2
    endloop
  endfacet
  facet normal 0 0 1
    outer loop
      vertex 0 22.38 2
      vertex 2.76363 9.75856 2
      vertex 2.7 10.77 2
    endloop
  endfacet
  facet normal 0 0 1
    outer loop
      vertex 0 22.38 2
      vertex 2.7 10.77 2
      vertex 2.76363 11.7814 2
    endloop
  endfacet
  facet normal 0 0 1
    outer loop
      vertex 0 22.38 2
      vertex 2.76363 11.7814 2
      vertex 2.95353 12.7769 2
    endloop
  endfacet
  facet normal 0 0 1
    outer loop
      vertex 30.3912 6.02657 2
      vertex 29.8482 6.88225 2
      vertex 18.84 10.77 2
    endloop
  endfacet
  facet normal 0 0 1
    outer loop
      vertex 0 22.38 2
      vertex 2.95353 12.7769 2
      vertex 3.2667 13.7408 2
    endloop
  endfacet
  facet normal 0 0 1
    outer loop
      vertex 0 22.38 2
      vertex 3.2667 13.7408 2
      vertex 3.6982 14.6578 2
    endloop
  endfacet
  facet normal 0 0 1
    outer loop
      vertex 31.0372 5.24571 2
      vertex 30.3912 6.02657 2
      vertex 18.7764 9.75856 2
    endloop
  endfacet
  facet normal 0 0 1
    outer loop
      vertex 0 22.38 2
      vertex 3.6982 14.6578 2
      vertex 4.24123 15.5134 2
    endloop
  endfacet
  facet normal 0 -0 1
    outer loop
      vertex 38.4322 2.84294 2
      vertex 37.4267 2.71592 2
      vertex 47.35 0 2
    endloop
  endfacet
  facet normal 0 0 1
    outer loop
      vertex 0 22.38 2
      vertex 4.24123 15.5134 2
      vertex 4.88722 16.2943 2
    endloop
  endfacet
  facet normal 0 -0 1
    outer loop
      vertex 18.7764 9.75856 2
      vertex 18.5865 8.76307 2
      vertex 31.0372 5.24571 2
    endloop
  endfacet
  facet normal 0 0 1
    outer loop
      vertex 0 22.38 2
      vertex 4.88722 16.2943 2
      vertex 5.62599 16.988 2
    endloop
  endfacet
  facet normal 0 0 1
    outer loop
      vertex 0 22.38 2
      vertex 5.62599 16.988 2
      vertex 6.44588 17.5837 2
    endloop
  endfacet
  facet normal 0 0 1
    outer loop
      vertex 0 22.38 2
      vertex 6.44588 17.5837 2
      vertex 7.33396 18.072 2
    endloop
  endfacet
  facet normal 0 0 1
    outer loop
      vertex 18.5865 12.7769 2
      vertex 18.7764 11.7814 2
      vertex 29.4167 7.79923 2
    endloop
  endfacet
  facet normal 0 0 1
    outer loop
      vertex 0 22.38 2
      vertex 7.33396 18.072 2
      vertex 8.27623 18.445 2
    endloop
  endfacet
  facet normal 0 -0 1
    outer loop
      vertex 39.4138 3.09497 2
      vertex 38.4322 2.84294 2
      vertex 47.35 0 2
    endloop
  endfacet
  facet normal -0 0 1
    outer loop
      vertex 10.2633 18.8241 2
      vertex 0 22.38 2
      vertex 9.25783 18.6971 2
    endloop
  endfacet
  facet normal 0 0 1
    outer loop
      vertex 35.4078 18.6971 2
      vertex 36.4133 18.8241 2
      vertex 47.35 22.38 2
    endloop
  endfacet
  facet normal 0 0 1
    outer loop
      vertex 47.35 22.38 2
      vertex 0 22.38 2
      vertex 10.2633 18.8241 2
    endloop
  endfacet
  facet normal 0 0 1
    outer loop
      vertex 29.4167 7.79923 2
      vertex 18.2733 13.7408 2
      vertex 18.5865 12.7769 2
    endloop
  endfacet
  facet normal 0 0 1
    outer loop
      vertex 47.35 22.38 2
      vertex 11.2767 18.8241 2
      vertex 12.2822 18.6971 2
    endloop
  endfacet
  facet normal 0 0 1
    outer loop
      vertex 47.35 22.38 2
      vertex 12.2822 18.6971 2
      vertex 13.2638 18.445 2
    endloop
  endfacet
  facet normal 0 0 1
    outer loop
      vertex 47.35 22.38 2
      vertex 13.2638 18.445 2
      vertex 14.206 18.072 2
    endloop
  endfacet
  facet normal 0 0 1
    outer loop
      vertex 28.9136 9.75856 2
      vertex 15.914 16.988 2
      vertex 16.6528 16.2943 2
    endloop
  endfacet
  facet normal 0 0 1
    outer loop
      vertex 16.6528 16.2943 2
      vertex 17.2988 15.5134 2
      vertex 28.9136 9.75856 2
    endloop
  endfacet
  facet normal 0 0 1
    outer loop
      vertex 17.8418 14.6578 2
      vertex 18.2733 13.7408 2
      vertex 29.1035 8.76307 2
    endloop
  endfacet
  facet normal 0 0 1
    outer loop
      vertex 32.5959 3.95627 2
      vertex 31.776 4.55196 2
      vertex 18.5865 8.76307 2
    endloop
  endfacet
  facet normal -0 -0 1
    outer loop
      vertex 35.4078 2.84294 2
      vertex 17.8418 6.88225 2
      vertex 47.35 0 2
    endloop
  endfacet
  facet normal 0 -0 1
    outer loop
      vertex 17.2988 6.02657 2
      vertex 16.6528 5.24571 2
      vertex 47.35 0 2
    endloop
  endfacet
  facet normal 0 -0 1
    outer loop
      vertex 16.6528 5.24571 2
      vertex 15.914 4.55196 2
      vertex 47.35 0 2
    endloop
  endfacet
  facet normal 0 -0 1
    outer loop
      vertex 15.914 4.55196 2
      vertex 15.0941 3.95627 2
      vertex 47.35 0 2
    endloop
  endfacet
  facet normal 0 -0 1
    outer loop
      vertex 15.0941 3.95627 2
      vertex 14.206 3.46805 2
      vertex 47.35 0 2
    endloop
  endfacet
  facet normal -0 0 1
    outer loop
      vertex 10.2633 2.71592 2
      vertex 9.25783 2.84294 2
      vertex 0 0 2
    endloop
  endfacet
  facet normal 0 -0 1
    outer loop
      vertex 14.206 3.46805 2
      vertex 13.2638 3.09497 2
      vertex 47.35 0 2
    endloop
  endfacet
  facet normal 0 -0 1
    outer loop
      vertex 13.2638 3.09497 2
      vertex 12.2822 2.84294 2
      vertex 47.35 0 2
    endloop
  endfacet
  facet normal -0 0 1
    outer loop
      vertex 9.25783 2.84294 2
      vertex 8.27623 3.09497 2
      vertex 0 0 2
    endloop
  endfacet
  facet normal 0 0 1
    outer loop
      vertex 29.1035 8.76307 2
      vertex 17.2988 15.5134 2
      vertex 17.8418 14.6578 2
    endloop
  endfacet
  facet normal 0 -0 1
    outer loop
      vertex 7.33396 3.46805 2
      vertex 0 0 2
      vertex 8.27623 3.09497 2
    endloop
  endfacet
  facet normal 0 -0 1
    outer loop
      vertex 6.44588 3.95627 2
      vertex 0 0 2
      vertex 7.33396 3.46805 2
    endloop
  endfacet
  facet normal 0 -0 1
    outer loop
      vertex 5.62599 4.55196 2
      vertex 0 0 2
      vertex 6.44588 3.95627 2
    endloop
  endfacet
  facet normal 0 -0 1
    outer loop
      vertex 4.88722 5.24571 2
      vertex 0 0 2
      vertex 5.62599 4.55196 2
    endloop
  endfacet
  facet normal 0 -0 1
    outer loop
      vertex 4.24123 6.02657 2
      vertex 0 0 2
      vertex 4.88722 5.24571 2
    endloop
  endfacet
  facet normal 0 -0 1
    outer loop
      vertex 3.6982 6.88225 2
      vertex 0 0 2
      vertex 4.24123 6.02657 2
    endloop
  endfacet
  facet normal 0 -0 1
    outer loop
      vertex 3.2667 7.79923 2
      vertex 0 0 2
      vertex 3.6982 6.88225 2
    endloop
  endfacet
  facet normal 0 -0 1
    outer loop
      vertex 2.95353 8.76307 2
      vertex 0 0 2
      vertex 3.2667 7.79923 2
    endloop
  endfacet
  facet normal 0 -0 1
    outer loop
      vertex 2.76363 9.75856 2
      vertex 0 0 2
      vertex 2.95353 8.76307 2
    endloop
  endfacet
  facet normal 0 0 1
    outer loop
      vertex 15.0941 17.5837 2
      vertex 28.85 10.77 2
      vertex 14.206 18.072 2
    endloop
  endfacet
  facet normal -0 0 1
    outer loop
      vertex 28.9136 11.7814 2
      vertex 14.206 18.072 2
      vertex 28.85 10.77 2
    endloop
  endfacet
  facet normal -0 0 1
    outer loop
      vertex 29.1035 12.7769 2
      vertex 14.206 18.072 2
      vertex 28.9136 11.7814 2
    endloop
  endfacet
  facet normal 0 0 1
    outer loop
      vertex 40.356 18.072 2
      vertex 41.2441 17.5837 2
      vertex 47.35 22.38 2
    endloop
  endfacet
  facet normal -0 0 1
    outer loop
      vertex 29.4167 13.7408 2
      vertex 14.206 18.072 2
      vertex 29.1035 12.7769 2
    endloop
  endfacet
  facet normal -0 0 1
    outer loop
      vertex 29.8482 14.6578 2
      vertex 14.206 18.072 2
      vertex 29.4167 13.7408 2
    endloop
  endfacet
  facet normal -0 0 1
    outer loop
      vertex 30.3912 15.5134 2
      vertex 14.206 18.072 2
      vertex 29.8482 14.6578 2
    endloop
  endfacet
  facet normal -0 0 1
    outer loop
      vertex 31.0372 16.2943 2
      vertex 14.206 18.072 2
      vertex 30.3912 15.5134 2
    endloop
  endfacet
  facet normal -0 0 1
    outer loop
      vertex 31.776 16.988 2
      vertex 14.206 18.072 2
      vertex 31.0372 16.2943 2
    endloop
  endfacet
  facet normal -0 0 1
    outer loop
      vertex 32.5959 17.5837 2
      vertex 14.206 18.072 2
      vertex 31.776 16.988 2
    endloop
  endfacet
  facet normal 0 0 1
    outer loop
      vertex 33.484 18.072 2
      vertex 14.206 18.072 2
      vertex 32.5959 17.5837 2
    endloop
  endfacet
  facet normal 0 0 1
    outer loop
      vertex 36.4133 18.8241 2
      vertex 37.4267 18.8241 2
      vertex 47.35 22.38 2
    endloop
  endfacet
  facet normal 0 0 1
    outer loop
      vertex 34.4262 18.445 2
      vertex 14.206 18.072 2
      vertex 33.484 18.072 2
    endloop
  endfacet
  facet normal 0 0 1
    outer loop
      vertex 47.35 22.38 2
      vertex 14.206 18.072 2
      vertex 34.4262 18.445 2
    endloop
  endfacet
  facet normal 0 0 1
    outer loop
      vertex 37.4267 18.8241 2
      vertex 38.4322 18.6971 2
      vertex 47.35 22.38 2
    endloop
  endfacet
  facet normal 0 0 1
    outer loop
      vertex 47.35 22.38 2
      vertex 34.4262 18.445 2
      vertex 35.4078 18.6971 2
    endloop
  endfacet
  facet normal 0 0 1
    outer loop
      vertex 38.4322 18.6971 2
      vertex 39.4138 18.445 2
      vertex 47.35 22.38 2
    endloop
  endfacet
  facet normal 0 0 1
    outer loop
      vertex 39.4138 18.445 2
      vertex 40.356 18.072 2
      vertex 47.35 22.38 2
    endloop
  endfacet
  facet normal 0 -0 1
    outer loop
      vertex 44.9264 9.75856 2
      vertex 44.7365 8.76307 2
      vertex 47.35 0 2
    endloop
  endfacet
  facet normal 0 0 1
    outer loop
      vertex 44.9264 11.7814 2
      vertex 44.99 10.77 2
      vertex 47.35 0 2
    endloop
  endfacet
  facet normal 0 -0 1
    outer loop
      vertex 41.2441 3.95627 2
      vertex 40.356 3.46805 2
      vertex 47.35 0 2
    endloop
  endfacet
  facet normal 0 0 1
    outer loop
      vertex 47.35 22.38 2
      vertex 41.2441 17.5837 2
      vertex 42.064 16.988 2
    endloop
  endfacet
  facet normal 0 0 1
    outer loop
      vertex 47.35 22.38 2
      vertex 42.064 16.988 2
      vertex 42.8028 16.2943 2
    endloop
  endfacet
  facet normal 0 -0 1
    outer loop
      vertex 44.7365 8.76307 2
      vertex 44.4233 7.79923 2
      vertex 47.35 0 2
    endloop
  endfacet
  facet normal 0 0 1
    outer loop
      vertex 47.35 22.38 2
      vertex 42.8028 16.2943 2
      vertex 43.4488 15.5134 2
    endloop
  endfacet
  facet normal 0 0 1
    outer loop
      vertex 47.35 22.38 2
      vertex 43.4488 15.5134 2
      vertex 43.9918 14.6578 2
    endloop
  endfacet
  facet normal 0 -0 1
    outer loop
      vertex 44.99 10.77 2
      vertex 44.9264 9.75856 2
      vertex 47.35 0 2
    endloop
  endfacet
  facet normal 0 0 1
    outer loop
      vertex 47.35 22.38 2
      vertex 43.9918 14.6578 2
      vertex 44.4233 13.7408 2
    endloop
  endfacet
  facet normal 0 0 1
    outer loop
      vertex 47.35 22.38 2
      vertex 44.7365 12.7769 2
      vertex 47.35 0 2
    endloop
  endfacet
  facet normal 0 0 1
    outer loop
      vertex 47.35 22.38 2
      vertex 44.4233 13.7408 2
      vertex 44.7365 12.7769 2
    endloop
  endfacet
  facet normal 0 0 1
    outer loop
      vertex 44.7365 12.7769 2
      vertex 44.9264 11.7814 2
      vertex 47.35 0 2
    endloop
  endfacet
  facet normal 0 -0 1
    outer loop
      vertex 44.4233 7.79923 2
      vertex 43.9918 6.88225 2
      vertex 47.35 0 2
    endloop
  endfacet
  facet normal 0 -0 1
    outer loop
      vertex 43.9918 6.88225 2
      vertex 43.4488 6.02657 2
      vertex 47.35 0 2
    endloop
  endfacet
  facet normal 0 -0 1
    outer loop
      vertex 43.4488 6.02657 2
      vertex 42.8028 5.24571 2
      vertex 47.35 0 2
    endloop
  endfacet
  facet normal 0 -0 1
    outer loop
      vertex 42.8028 5.24571 2
      vertex 42.064 4.55196 2
      vertex 47.35 0 2
    endloop
  endfacet
  facet normal 0 -0 1
    outer loop
      vertex 42.064 4.55196 2
      vertex 41.2441 3.95627 2
      vertex 47.35 0 2
    endloop
  endfacet
  facet normal 0 0 1
    outer loop
      vertex 28.9136 9.75856 2
      vertex 15.0941 17.5837 2
      vertex 15.914 16.988 2
    endloop
  endfacet
  facet normal 0 0 1
    outer loop
      vertex 29.4167 7.79923 2
      vertex 29.1035 8.76307 2
      vertex 18.2733 13.7408 2
    endloop
  endfacet
  facet normal 0 -0 1
    outer loop
      vertex 18.84 10.77 2
      vertex 18.7764 9.75856 2
      vertex 30.3912 6.02657 2
    endloop
  endfacet
  facet normal 0 0 1
    outer loop
      vertex 33.484 3.46805 2
      vertex 32.5959 3.95627 2
      vertex 18.2733 7.79923 2
    endloop
  endfacet
  facet normal 0 0 1
    outer loop
      vertex 28.9136 9.75856 2
      vertex 28.85 10.77 2
      vertex 15.0941 17.5837 2
    endloop
  endfacet
  facet normal 0 0 1
    outer loop
      vertex 11.2767 2.71592 2
      vertex 10.2633 2.71592 2
      vertex 0 0 2
    endloop
  endfacet
  facet normal 0 -0 1
    outer loop
      vertex 17.8418 6.88225 2
      vertex 17.2988 6.02657 2
      vertex 47.35 0 2
    endloop
  endfacet
  facet normal 0 -0 1
    outer loop
      vertex 40.356 3.46805 2
      vertex 39.4138 3.09497 2
      vertex 47.35 0 2
    endloop
  endfacet
  facet normal -0 -0 1
    outer loop
      vertex 36.4133 2.71592 2
      vertex 35.4078 2.84294 2
      vertex 47.35 0 2
    endloop
  endfacet
  facet normal 0 0 1
    outer loop
      vertex 32.5959 3.95627 2
      vertex 18.5865 8.76307 2
      vertex 18.2733 7.79923 2
    endloop
  endfacet
  facet normal 0 0 1
    outer loop
      vertex 31.776 4.55196 2
      vertex 31.0372 5.24571 2
      vertex 18.5865 8.76307 2
    endloop
  endfacet
  facet normal 0 -0 1
    outer loop
      vertex 37.4267 2.71592 2
      vertex 36.4133 2.71592 2
      vertex 47.35 0 2
    endloop
  endfacet
  facet normal 0 0 1
    outer loop
      vertex 29.8482 6.88225 2
      vertex 29.4167 7.79923 2
      vertex 18.7764 11.7814 2
    endloop
  endfacet
  facet normal 0 0 1
    outer loop
      vertex 8.27623 18.445 2
      vertex 9.25783 18.6971 2
      vertex 0 22.38 2
    endloop
  endfacet
  facet normal 0 0 1
    outer loop
      vertex 18.7764 11.7814 2
      vertex 18.84 10.77 2
      vertex 29.8482 6.88225 2
    endloop
  endfacet
  facet normal 0 0 1
    outer loop
      vertex 18.2733 7.79923 2
      vertex 34.4262 3.09497 2
      vertex 33.484 3.46805 2
    endloop
  endfacet
  facet normal -0 -0 1
    outer loop
      vertex 34.4262 3.09497 2
      vertex 17.8418 6.88225 2
      vertex 35.4078 2.84294 2
    endloop
  endfacet
  facet normal 0 -0 1
    outer loop
      vertex 18.2733 7.79923 2
      vertex 17.8418 6.88225 2
      vertex 34.4262 3.09497 2
    endloop
  endfacet
  facet normal 1 0 -0
    outer loop
      vertex 47.35 0 2
      vertex 47.35 0 0
      vertex 47.35 22.38 0
    endloop
  endfacet
  facet normal 1 0 0
    outer loop
      vertex 47.35 22.38 2
      vertex 47.35 0 2
      vertex 47.35 22.38 0
    endloop
  endfacet
  facet normal 0.998027 -0.0627902 0
    outer loop
      vertex 2.76363 11.7814 0
      vertex 2.76363 11.7814 2
      vertex 2.7 10.77 2
    endloop
  endfacet
  facet normal 0.998027 -0.0627902 0
    outer loop
      vertex 2.7 10.77 0
      vertex 2.76363 11.7814 0
      vertex 2.7 10.77 2
    endloop
  endfacet
  facet normal 0.998027 0.0627902 0
    outer loop
      vertex 2.7 10.77 2
      vertex 2.76363 9.75856 2
      vertex 2.76363 9.75856 0
    endloop
  endfacet
  facet normal 0.998027 0.0627902 0
    outer loop
      vertex 2.7 10.77 0
      vertex 2.7 10.77 2
      vertex 2.76363 9.75856 0
    endloop
  endfacet
  facet normal 0.982287 -0.187382 0
    outer loop
      vertex 2.95353 12.7769 0
      vertex 2.95353 12.7769 2
      vertex 2.76363 11.7814 2
    endloop
  endfacet
  facet normal 0.982287 -0.187382 0
    outer loop
      vertex 2.76363 11.7814 0
      vertex 2.95353 12.7769 0
      vertex 2.76363 11.7814 2
    endloop
  endfacet
  facet normal 0.951057 -0.309017 0
    outer loop
      vertex 3.2667 13.7408 0
      vertex 3.2667 13.7408 2
      vertex 2.95353 12.7769 2
    endloop
  endfacet
  facet normal 0.951057 -0.309017 0
    outer loop
      vertex 2.95353 12.7769 0
      vertex 3.2667 13.7408 0
      vertex 2.95353 12.7769 2
    endloop
  endfacet
  facet normal 0.904827 -0.425779 0
    outer loop
      vertex 3.6982 14.6578 0
      vertex 3.6982 14.6578 2
      vertex 3.2667 13.7408 2
    endloop
  endfacet
  facet normal 0.904827 -0.425779 0
    outer loop
      vertex 3.2667 13.7408 0
      vertex 3.6982 14.6578 0
      vertex 3.2667 13.7408 2
    endloop
  endfacet
  facet normal 0.844328 -0.535827 0
    outer loop
      vertex 4.24123 15.5134 0
      vertex 4.24123 15.5134 2
      vertex 3.6982 14.6578 2
    endloop
  endfacet
  facet normal 0.844328 -0.535827 0
    outer loop
      vertex 3.6982 14.6578 0
      vertex 4.24123 15.5134 0
      vertex 3.6982 14.6578 2
    endloop
  endfacet
  facet normal 0.770513 -0.637424 0
    outer loop
      vertex 4.88722 16.2943 0
      vertex 4.88722 16.2943 2
      vertex 4.24123 15.5134 2
    endloop
  endfacet
  facet normal 0.770513 -0.637424 0
    outer loop
      vertex 4.24123 15.5134 0
      vertex 4.88722 16.2943 0
      vertex 4.24123 15.5134 2
    endloop
  endfacet
  facet normal 0.684547 -0.728968 0
    outer loop
      vertex 5.62599 16.988 0
      vertex 5.62599 16.988 2
      vertex 4.88722 16.2943 2
    endloop
  endfacet
  facet normal 0.684547 -0.728968 0
    outer loop
      vertex 4.88722 16.2943 0
      vertex 5.62599 16.988 0
      vertex 4.88722 16.2943 2
    endloop
  endfacet
  facet normal 0.587785 -0.809017 0
    outer loop
      vertex 6.44588 17.5837 0
      vertex 6.44588 17.5837 2
      vertex 5.62599 16.988 2
    endloop
  endfacet
  facet normal 0.587785 -0.809017 0
    outer loop
      vertex 5.62599 16.988 0
      vertex 6.44588 17.5837 0
      vertex 5.62599 16.988 2
    endloop
  endfacet
  facet normal 0.481754 -0.876307 0
    outer loop
      vertex 7.33396 18.072 0
      vertex 7.33396 18.072 2
      vertex 6.44588 17.5837 2
    endloop
  endfacet
  facet normal 0.481754 -0.876307 0
    outer loop
      vertex 6.44588 17.5837 0
      vertex 7.33396 18.072 0
      vertex 6.44588 17.5837 2
    endloop
  endfacet
  facet normal 0.368125 -0.929776 0
    outer loop
      vertex 8.27623 18.445 0
      vertex 8.27623 18.445 2
      vertex 7.33396 18.072 2
    endloop
  endfacet
  facet normal 0.368125 -0.929776 0
    outer loop
      vertex 7.33396 18.072 0
      vertex 8.27623 18.445 0
      vertex 7.33396 18.072 2
    endloop
  endfacet
  facet normal 0.24869 -0.968583 0
    outer loop
      vertex 9.25783 18.6971 0
      vertex 9.25783 18.6971 2
      vertex 8.27623 18.445 2
    endloop
  endfacet
  facet normal 0.24869 -0.968583 0
    outer loop
      vertex 8.27623 18.445 0
      vertex 9.25783 18.6971 0
      vertex 8.27623 18.445 2
    endloop
  endfacet
  facet normal 0.125334 -0.992115 0
    outer loop
      vertex 10.2633 18.8241 0
      vertex 10.2633 18.8241 2
      vertex 9.25783 18.6971 2
    endloop
  endfacet
  facet normal 0.125334 -0.992115 0
    outer loop
      vertex 9.25783 18.6971 0
      vertex 10.2633 18.8241 0
      vertex 9.25783 18.6971 2
    endloop
  endfacet
  facet normal 0 -1 0
    outer loop
      vertex 11.2767 18.8241 0
      vertex 11.2767 18.8241 2
      vertex 10.2633 18.8241 2
    endloop
  endfacet
  facet normal -0 -1 -0
    outer loop
      vertex 10.2633 18.8241 0
      vertex 11.2767 18.8241 0
      vertex 10.2633 18.8241 2
    endloop
  endfacet
  facet normal -0.125334 -0.992115 -0
    outer loop
      vertex 12.2822 18.6971 0
      vertex 12.2822 18.6971 2
      vertex 11.2767 18.8241 2
    endloop
  endfacet
  facet normal -0.125334 -0.992115 -0
    outer loop
      vertex 11.2767 18.8241 0
      vertex 12.2822 18.6971 0
      vertex 11.2767 18.8241 2
    endloop
  endfacet
  facet normal -0.24869 -0.968583 -0
    outer loop
      vertex 13.2638 18.445 0
      vertex 13.2638 18.445 2
      vertex 12.2822 18.6971 2
    endloop
  endfacet
  facet normal -0.24869 -0.968583 -0
    outer loop
      vertex 12.2822 18.6971 0
      vertex 13.2638 18.445 0
      vertex 12.2822 18.6971 2
    endloop
  endfacet
  facet normal -0.368125 -0.929776 -0
    outer loop
      vertex 14.206 18.072 0
      vertex 14.206 18.072 2
      vertex 13.2638 18.445 2
    endloop
  endfacet
  facet normal -0.368125 -0.929776 -0
    outer loop
      vertex 13.2638 18.445 0
      vertex 14.206 18.072 0
      vertex 13.2638 18.445 2
    endloop
  endfacet
  facet normal -0.481754 -0.876307 -0
    outer loop
      vertex 15.0941 17.5837 0
      vertex 15.0941 17.5837 2
      vertex 14.206 18.072 2
    endloop
  endfacet
  facet normal -0.481754 -0.876307 -0
    outer loop
      vertex 14.206 18.072 0
      vertex 15.0941 17.5837 0
      vertex 14.206 18.072 2
    endloop
  endfacet
  facet normal -0.587785 -0.809017 -0
    outer loop
      vertex 15.914 16.988 0
      vertex 15.914 16.988 2
      vertex 15.0941 17.5837 2
    endloop
  endfacet
  facet normal -0.587785 -0.809017 -0
    outer loop
      vertex 15.0941 17.5837 0
      vertex 15.914 16.988 0
      vertex 15.0941 17.5837 2
    endloop
  endfacet
  facet normal -0.684547 -0.728968 -0
    outer loop
      vertex 16.6528 16.2943 0
      vertex 16.6528 16.2943 2
      vertex 15.914 16.988 2
    endloop
  endfacet
  facet normal -0.684547 -0.728968 -0
    outer loop
      vertex 15.914 16.988 0
      vertex 16.6528 16.2943 0
      vertex 15.914 16.988 2
    endloop
  endfacet
  facet normal -0.770513 -0.637424 0
    outer loop
      vertex 17.2988 15.5134 2
      vertex 16.6528 16.2943 2
      vertex 17.2988 15.5134 0
    endloop
  endfacet
  facet normal -0.770513 -0.637424 0
    outer loop
      vertex 17.2988 15.5134 0
      vertex 16.6528 16.2943 2
      vertex 16.6528 16.2943 0
    endloop
  endfacet
  facet normal -0.844328 -0.535827 0
    outer loop
      vertex 17.8418 14.6578 2
      vertex 17.2988 15.5134 2
      vertex 17.8418 14.6578 0
    endloop
  endfacet
  facet normal -0.844328 -0.535827 0
    outer loop
      vertex 17.8418 14.6578 0
      vertex 17.2988 15.5134 2
      vertex 17.2988 15.5134 0
    endloop
  endfacet
  facet normal -0.904827 -0.425779 0
    outer loop
      vertex 18.2733 13.7408 2
      vertex 17.8418 14.6578 2
      vertex 18.2733 13.7408 0
    endloop
  endfacet
  facet normal -0.904827 -0.425779 0
    outer loop
      vertex 18.2733 13.7408 0
      vertex 17.8418 14.6578 2
      vertex 17.8418 14.6578 0
    endloop
  endfacet
  facet normal -0.951057 -0.309017 0
    outer loop
      vertex 18.5865 12.7769 2
      vertex 18.2733 13.7408 2
      vertex 18.5865 12.7769 0
    endloop
  endfacet
  facet normal -0.951057 -0.309017 0
    outer loop
      vertex 18.5865 12.7769 0
      vertex 18.2733 13.7408 2
      vertex 18.2733 13.7408 0
    endloop
  endfacet
  facet normal -0.982287 -0.187382 0
    outer loop
      vertex 18.7764 11.7814 2
      vertex 18.5865 12.7769 2
      vertex 18.7764 11.7814 0
    endloop
  endfacet
  facet normal -0.982287 -0.187382 0
    outer loop
      vertex 18.7764 11.7814 0
      vertex 18.5865 12.7769 2
      vertex 18.5865 12.7769 0
    endloop
  endfacet
  facet normal -0.998027 -0.0627902 0
    outer loop
      vertex 18.84 10.77 2
      vertex 18.7764 11.7814 2
      vertex 18.84 10.77 0
    endloop
  endfacet
  facet normal -0.998027 -0.0627902 0
    outer loop
      vertex 18.84 10.77 0
      vertex 18.7764 11.7814 2
      vertex 18.7764 11.7814 0
    endloop
  endfacet
  facet normal -0.998027 0.0627902 0
    outer loop
      vertex 18.84 10.77 2
      vertex 18.84 10.77 0
      vertex 18.7764 9.75856 2
    endloop
  endfacet
  facet normal -0.998027 0.0627902 0
    outer loop
      vertex 18.7764 9.75856 2
      vertex 18.84 10.77 0
      vertex 18.7764 9.75856 0
    endloop
  endfacet
  facet normal -0.982287 0.187382 0
    outer loop
      vertex 18.7764 9.75856 2
      vertex 18.7764 9.75856 0
      vertex 18.5865 8.76307 2
    endloop
  endfacet
  facet normal -0.982287 0.187382 0
    outer loop
      vertex 18.5865 8.76307 2
      vertex 18.7764 9.75856 0
      vertex 18.5865 8.76307 0
    endloop
  endfacet
  facet normal -0.951057 0.309017 0
    outer loop
      vertex 18.5865 8.76307 2
      vertex 18.5865 8.76307 0
      vertex 18.2733 7.79923 2
    endloop
  endfacet
  facet normal -0.951057 0.309017 0
    outer loop
      vertex 18.2733 7.79923 2
      vertex 18.5865 8.76307 0
      vertex 18.2733 7.79923 0
    endloop
  endfacet
  facet normal -0.904827 0.425779 0
    outer loop
      vertex 18.2733 7.79923 2
      vertex 18.2733 7.79923 0
      vertex 17.8418 6.88225 2
    endloop
  endfacet
  facet normal -0.904827 0.425779 0
    outer loop
      vertex 17.8418 6.88225 2
      vertex 18.2733 7.79923 0
      vertex 17.8418 6.88225 0
    endloop
  endfacet
  facet normal -0.844328 0.535827 0
    outer loop
      vertex 17.8418 6.88225 2
      vertex 17.8418 6.88225 0
      vertex 17.2988 6.02657 2
    endloop
  endfacet
  facet normal -0.844328 0.535827 0
    outer loop
      vertex 17.2988 6.02657 2
      vertex 17.8418 6.88225 0
      vertex 17.2988 6.02657 0
    endloop
  endfacet
  facet normal -0.770513 0.637424 0
    outer loop
      vertex 17.2988 6.02657 2
      vertex 17.2988 6.02657 0
      vertex 16.6528 5.24571 2
    endloop
  endfacet
  facet normal -0.770513 0.637424 0
    outer loop
      vertex 16.6528 5.24571 2
      vertex 17.2988 6.02657 0
      vertex 16.6528 5.24571 0
    endloop
  endfacet
  facet normal -0.684547 0.728968 0
    outer loop
      vertex 16.6528 5.24571 2
      vertex 16.6528 5.24571 0
      vertex 15.914 4.55196 2
    endloop
  endfacet
  facet normal -0.684547 0.728968 0
    outer loop
      vertex 15.914 4.55196 2
      vertex 16.6528 5.24571 0
      vertex 15.914 4.55196 0
    endloop
  endfacet
  facet normal -0.587785 0.809017 0
    outer loop
      vertex 15.914 4.55196 2
      vertex 15.914 4.55196 0
      vertex 15.0941 3.95627 2
    endloop
  endfacet
  facet normal -0.587785 0.809017 0
    outer loop
      vertex 15.0941 3.95627 2
      vertex 15.914 4.55196 0
      vertex 15.0941 3.95627 0
    endloop
  endfacet
  facet normal -0.481754 0.876307 0
    outer loop
      vertex 15.0941 3.95627 2
      vertex 15.0941 3.95627 0
      vertex 14.206 3.46805 2
    endloop
  endfacet
  facet normal -0.481754 0.876307 0
    outer loop
      vertex 14.206 3.46805 2
      vertex 15.0941 3.95627 0
      vertex 14.206 3.46805 0
    endloop
  endfacet
  facet normal -0.368125 0.929776 0
    outer loop
      vertex 14.206 3.46805 2
      vertex 14.206 3.46805 0
      vertex 13.2638 3.09497 2
    endloop
  endfacet
  facet normal -0.368125 0.929776 0
    outer loop
      vertex 13.2638 3.09497 2
      vertex 14.206 3.46805 0
      vertex 13.2638 3.09497 0
    endloop
  endfacet
  facet normal -0.24869 0.968583 0
    outer loop
      vertex 13.2638 3.09497 2
      vertex 13.2638 3.09497 0
      vertex 12.2822 2.84294 2
    endloop
  endfacet
  facet normal -0.24869 0.968583 0
    outer loop
      vertex 12.2822 2.84294 2
      vertex 13.2638 3.09497 0
      vertex 12.2822 2.84294 0
    endloop
  endfacet
  facet normal -0.125334 0.992115 0
    outer loop
      vertex 12.2822 2.84294 2
      vertex 12.2822 2.84294 0
      vertex 11.2767 2.71592 2
    endloop
  endfacet
  facet normal -0.125334 0.992115 0
    outer loop
      vertex 11.2767 2.71592 2
      vertex 12.2822 2.84294 0
      vertex 11.2767 2.71592 0
    endloop
  endfacet
  facet normal 0 1 0
    outer loop
      vertex 11.2767 2.71592 2
      vertex 11.2767 2.71592 0
      vertex 10.2633 2.71592 2
    endloop
  endfacet
  facet normal 0 1 -0
    outer loop
      vertex 10.2633 2.71592 2
      vertex 11.2767 2.71592 0
      vertex 10.2633 2.71592 0
    endloop
  endfacet
  facet normal 0.125334 0.992115 -0
    outer loop
      vertex 10.2633 2.71592 2
      vertex 10.2633 2.71592 0
      vertex 9.25783 2.84294 2
    endloop
  endfacet
  facet normal 0.125334 0.992115 -0
    outer loop
      vertex 9.25783 2.84294 2
      vertex 10.2633 2.71592 0
      vertex 9.25783 2.84294 0
    endloop
  endfacet
  facet normal 0.24869 0.968583 -0
    outer loop
      vertex 9.25783 2.84294 2
      vertex 9.25783 2.84294 0
      vertex 8.27623 3.09497 2
    endloop
  endfacet
  facet normal 0.24869 0.968583 -0
    outer loop
      vertex 8.27623 3.09497 2
      vertex 9.25783 2.84294 0
      vertex 8.27623 3.09497 0
    endloop
  endfacet
  facet normal 0.368125 0.929776 -0
    outer loop
      vertex 8.27623 3.09497 2
      vertex 8.27623 3.09497 0
      vertex 7.33396 3.46805 2
    endloop
  endfacet
  facet normal 0.368125 0.929776 -0
    outer loop
      vertex 7.33396 3.46805 2
      vertex 8.27623 3.09497 0
      vertex 7.33396 3.46805 0
    endloop
  endfacet
  facet normal 0.481754 0.876307 -0
    outer loop
      vertex 7.33396 3.46805 2
      vertex 7.33396 3.46805 0
      vertex 6.44588 3.95627 2
    endloop
  endfacet
  facet normal 0.481754 0.876307 -0
    outer loop
      vertex 6.44588 3.95627 2
      vertex 7.33396 3.46805 0
      vertex 6.44588 3.95627 0
    endloop
  endfacet
  facet normal 0.587785 0.809017 -0
    outer loop
      vertex 6.44588 3.95627 2
      vertex 6.44588 3.95627 0
      vertex 5.62599 4.55196 2
    endloop
  endfacet
  facet normal 0.587785 0.809017 -0
    outer loop
      vertex 5.62599 4.55196 2
      vertex 6.44588 3.95627 0
      vertex 5.62599 4.55196 0
    endloop
  endfacet
  facet normal 0.684547 0.728968 -0
    outer loop
      vertex 5.62599 4.55196 2
      vertex 5.62599 4.55196 0
      vertex 4.88722 5.24571 2
    endloop
  endfacet
  facet normal 0.684547 0.728968 -0
    outer loop
      vertex 4.88722 5.24571 2
      vertex 5.62599 4.55196 0
      vertex 4.88722 5.24571 0
    endloop
  endfacet
  facet normal 0.770513 0.637424 0
    outer loop
      vertex 4.24123 6.02657 2
      vertex 4.88722 5.24571 2
      vertex 4.88722 5.24571 0
    endloop
  endfacet
  facet normal 0.770513 0.637424 0
    outer loop
      vertex 4.24123 6.02657 0
      vertex 4.24123 6.02657 2
      vertex 4.88722 5.24571 0
    endloop
  endfacet
  facet normal 0.844328 0.535827 0
    outer loop
      vertex 3.6982 6.88225 2
      vertex 4.24123 6.02657 2
      vertex 4.24123 6.02657 0
    endloop
  endfacet
  facet normal 0.844328 0.535827 0
    outer loop
      vertex 3.6982 6.88225 0
      vertex 3.6982 6.88225 2
      vertex 4.24123 6.02657 0
    endloop
  endfacet
  facet normal 0.904827 0.425779 0
    outer loop
      vertex 3.2667 7.79923 2
      vertex 3.6982 6.88225 2
      vertex 3.6982 6.88225 0
    endloop
  endfacet
  facet normal 0.904827 0.425779 0
    outer loop
      vertex 3.2667 7.79923 0
      vertex 3.2667 7.79923 2
      vertex 3.6982 6.88225 0
    endloop
  endfacet
  facet normal 0.951057 0.309017 0
    outer loop
      vertex 2.95353 8.76307 2
      vertex 3.2667 7.79923 2
      vertex 3.2667 7.79923 0
    endloop
  endfacet
  facet normal 0.951057 0.309017 0
    outer loop
      vertex 2.95353 8.76307 0
      vertex 2.95353 8.76307 2
      vertex 3.2667 7.79923 0
    endloop
  endfacet
  facet normal 0.982287 0.187382 0
    outer loop
      vertex 2.76363 9.75856 2
      vertex 2.95353 8.76307 2
      vertex 2.95353 8.76307 0
    endloop
  endfacet
  facet normal 0.982287 0.187382 0
    outer loop
      vertex 2.76363 9.75856 0
      vertex 2.76363 9.75856 2
      vertex 2.95353 8.76307 0
    endloop
  endfacet
  facet normal 0.998027 -0.0627902 0
    outer loop
      vertex 28.9136 11.7814 0
      vertex 28.9136 11.7814 2
      vertex 28.85 10.77 2
    endloop
  endfacet
  facet normal 0.998027 -0.0627902 0
    outer loop
      vertex 28.85 10.77 0
      vertex 28.9136 11.7814 0
      vertex 28.85 10.77 2
    endloop
  endfacet
  facet normal 0.998027 0.0627902 0
    outer loop
      vertex 28.85 10.77 2
      vertex 28.9136 9.75856 2
      vertex 28.9136 9.75856 0
    endloop
  endfacet
  facet normal 0.998027 0.0627902 0
    outer loop
      vertex 28.85 10.77 0
      vertex 28.85 10.77 2
      vertex 28.9136 9.75856 0
    endloop
  endfacet
  facet normal 0.982287 -0.187382 0
    outer loop
      vertex 29.1035 12.7769 0
      vertex 29.1035 12.7769 2
      vertex 28.9136 11.7814 2
    endloop
  endfacet
  facet normal 0.982287 -0.187382 0
    outer loop
      vertex 28.9136 11.7814 0
      vertex 29.1035 12.7769 0
      vertex 28.9136 11.7814 2
    endloop
  endfacet
  facet normal 0.951057 -0.309017 0
    outer loop
      vertex 29.4167 13.7408 0
      vertex 29.4167 13.7408 2
      vertex 29.1035 12.7769 2
    endloop
  endfacet
  facet normal 0.951057 -0.309017 0
    outer loop
      vertex 29.1035 12.7769 0
      vertex 29.4167 13.7408 0
      vertex 29.1035 12.7769 2
    endloop
  endfacet
  facet normal 0.904827 -0.425779 0
    outer loop
      vertex 29.8482 14.6578 0
      vertex 29.8482 14.6578 2
      vertex 29.4167 13.7408 2
    endloop
  endfacet
  facet normal 0.904827 -0.425779 0
    outer loop
      vertex 29.4167 13.7408 0
      vertex 29.8482 14.6578 0
      vertex 29.4167 13.7408 2
    endloop
  endfacet
  facet normal 0.844328 -0.535827 0
    outer loop
      vertex 30.3912 15.5134 0
      vertex 30.3912 15.5134 2
      vertex 29.8482 14.6578 2
    endloop
  endfacet
  facet normal 0.844328 -0.535827 0
    outer loop
      vertex 29.8482 14.6578 0
      vertex 30.3912 15.5134 0
      vertex 29.8482 14.6578 2
    endloop
  endfacet
  facet normal 0.770513 -0.637424 0
    outer loop
      vertex 31.0372 16.2943 0
      vertex 31.0372 16.2943 2
      vertex 30.3912 15.5134 2
    endloop
  endfacet
  facet normal 0.770513 -0.637424 0
    outer loop
      vertex 30.3912 15.5134 0
      vertex 31.0372 16.2943 0
      vertex 30.3912 15.5134 2
    endloop
  endfacet
  facet normal 0.684547 -0.728968 0
    outer loop
      vertex 31.776 16.988 0
      vertex 31.776 16.988 2
      vertex 31.0372 16.2943 2
    endloop
  endfacet
  facet normal 0.684547 -0.728968 0
    outer loop
      vertex 31.0372 16.2943 0
      vertex 31.776 16.988 0
      vertex 31.0372 16.2943 2
    endloop
  endfacet
  facet normal 0.587785 -0.809017 0
    outer loop
      vertex 32.5959 17.5837 0
      vertex 32.5959 17.5837 2
      vertex 31.776 16.988 2
    endloop
  endfacet
  facet normal 0.587785 -0.809017 0
    outer loop
      vertex 31.776 16.988 0
      vertex 32.5959 17.5837 0
      vertex 31.776 16.988 2
    endloop
  endfacet
  facet normal 0.481754 -0.876307 0
    outer loop
      vertex 33.484 18.072 0
      vertex 33.484 18.072 2
      vertex 32.5959 17.5837 2
    endloop
  endfacet
  facet normal 0.481754 -0.876307 0
    outer loop
      vertex 32.5959 17.5837 0
      vertex 33.484 18.072 0
      vertex 32.5959 17.5837 2
    endloop
  endfacet
  facet normal 0.368125 -0.929776 0
    outer loop
      vertex 34.4262 18.445 0
      vertex 34.4262 18.445 2
      vertex 33.484 18.072 2
    endloop
  endfacet
  facet normal 0.368125 -0.929776 0
    outer loop
      vertex 33.484 18.072 0
      vertex 34.4262 18.445 0
      vertex 33.484 18.072 2
    endloop
  endfacet
  facet normal 0.24869 -0.968583 0
    outer loop
      vertex 35.4078 18.6971 0
      vertex 35.4078 18.6971 2
      vertex 34.4262 18.445 2
    endloop
  endfacet
  facet normal 0.24869 -0.968583 0
    outer loop
      vertex 34.4262 18.445 0
      vertex 35.4078 18.6971 0
      vertex 34.4262 18.445 2
    endloop
  endfacet
  facet normal 0.125334 -0.992115 0
    outer loop
      vertex 36.4133 18.8241 0
      vertex 36.4133 18.8241 2
      vertex 35.4078 18.6971 2
    endloop
  endfacet
  facet normal 0.125334 -0.992115 0
    outer loop
      vertex 35.4078 18.6971 0
      vertex 36.4133 18.8241 0
      vertex 35.4078 18.6971 2
    endloop
  endfacet
  facet normal 0 -1 0
    outer loop
      vertex 37.4267 18.8241 0
      vertex 37.4267 18.8241 2
      vertex 36.4133 18.8241 2
    endloop
  endfacet
  facet normal -0 -1 -0
    outer loop
      vertex 36.4133 18.8241 0
      vertex 37.4267 18.8241 0
      vertex 36.4133 18.8241 2
    endloop
  endfacet
  facet normal -0.125334 -0.992115 -0
    outer loop
      vertex 38.4322 18.6971 0
      vertex 38.4322 18.6971 2
      vertex 37.4267 18.8241 2
    endloop
  endfacet
  facet normal -0.125334 -0.992115 -0
    outer loop
      vertex 37.4267 18.8241 0
      vertex 38.4322 18.6971 0
      vertex 37.4267 18.8241 2
    endloop
  endfacet
  facet normal -0.24869 -0.968583 -0
    outer loop
      vertex 39.4138 18.445 0
      vertex 39.4138 18.445 2
      vertex 38.4322 18.6971 2
    endloop
  endfacet
  facet normal -0.24869 -0.968583 -0
    outer loop
      vertex 38.4322 18.6971 0
      vertex 39.4138 18.445 0
      vertex 38.4322 18.6971 2
    endloop
  endfacet
  facet normal -0.368125 -0.929776 -0
    outer loop
      vertex 40.356 18.072 0
      vertex 40.356 18.072 2
      vertex 39.4138 18.445 2
    endloop
  endfacet
  facet normal -0.368125 -0.929776 -0
    outer loop
      vertex 39.4138 18.445 0
      vertex 40.356 18.072 0
      vertex 39.4138 18.445 2
    endloop
  endfacet
  facet normal -0.481754 -0.876307 -0
    outer loop
      vertex 41.2441 17.5837 0
      vertex 41.2441 17.5837 2
      vertex 40.356 18.072 2
    endloop
  endfacet
  facet normal -0.481754 -0.876307 -0
    outer loop
      vertex 40.356 18.072 0
      vertex 41.2441 17.5837 0
      vertex 40.356 18.072 2
    endloop
  endfacet
  facet normal -0.587785 -0.809017 -0
    outer loop
      vertex 42.064 16.988 0
      vertex 42.064 16.988 2
      vertex 41.2441 17.5837 2
    endloop
  endfacet
  facet normal -0.587785 -0.809017 -0
    outer loop
      vertex 41.2441 17.5837 0
      vertex 42.064 16.988 0
      vertex 41.2441 17.5837 2
    endloop
  endfacet
  facet normal -0.684547 -0.728968 -0
    outer loop
      vertex 42.8028 16.2943 0
      vertex 42.8028 16.2943 2
      vertex 42.064 16.988 2
    endloop
  endfacet
  facet normal -0.684547 -0.728968 -0
    outer loop
      vertex 42.064 16.988 0
      vertex 42.8028 16.2943 0
      vertex 42.064 16.988 2
    endloop
  endfacet
  facet normal -0.770513 -0.637424 0
    outer loop
      vertex 43.4488 15.5134 2
      vertex 42.8028 16.2943 2
      vertex 43.4488 15.5134 0
    endloop
  endfacet
  facet normal -0.770513 -0.637424 0
    outer loop
      vertex 43.4488 15.5134 0
      vertex 42.8028 16.2943 2
      vertex 42.8028 16.2943 0
    endloop
  endfacet
  facet normal -0.844328 -0.535827 0
    outer loop
      vertex 43.9918 14.6578 2
      vertex 43.4488 15.5134 2
      vertex 43.9918 14.6578 0
    endloop
  endfacet
  facet normal -0.844328 -0.535827 0
    outer loop
      vertex 43.9918 14.6578 0
      vertex 43.4488 15.5134 2
      vertex 43.4488 15.5134 0
    endloop
  endfacet
  facet normal -0.904827 -0.425779 0
    outer loop
      vertex 44.4233 13.7408 2
      vertex 43.9918 14.6578 2
      vertex 44.4233 13.7408 0
    endloop
  endfacet
  facet normal -0.904827 -0.425779 0
    outer loop
      vertex 44.4233 13.7408 0
      vertex 43.9918 14.6578 2
      vertex 43.9918 14.6578 0
    endloop
  endfacet
  facet normal -0.951057 -0.309017 0
    outer loop
      vertex 44.7365 12.7769 2
      vertex 44.4233 13.7408 2
      vertex 44.7365 12.7769 0
    endloop
  endfacet
  facet normal -0.951057 -0.309017 0
    outer loop
      vertex 44.7365 12.7769 0
      vertex 44.4233 13.7408 2
      vertex 44.4233 13.7408 0
    endloop
  endfacet
  facet normal -0.982287 -0.187382 0
    outer loop
      vertex 44.9264 11.7814 2
      vertex 44.7365 12.7769 2
      vertex 44.9264 11.7814 0
    endloop
  endfacet
  facet normal -0.982287 -0.187382 0
    outer loop
      vertex 44.9264 11.7814 0
      vertex 44.7365 12.7769 2
      vertex 44.7365 12.7769 0
    endloop
  endfacet
  facet normal -0.998027 -0.0627902 0
    outer loop
      vertex 44.99 10.77 2
      vertex 44.9264 11.7814 2
      vertex 44.99 10.77 0
    endloop
  endfacet
  facet normal -0.998027 -0.0627902 0
    outer loop
      vertex 44.99 10.77 0
      vertex 44.9264 11.7814 2
      vertex 44.9264 11.7814 0
    endloop
  endfacet
  facet normal -0.998027 0.0627902 0
    outer loop
      vertex 44.99 10.77 2
      vertex 44.99 10.77 0
      vertex 44.9264 9.75856 2
    endloop
  endfacet
  facet normal -0.998027 0.0627902 0
    outer loop
      vertex 44.9264 9.75856 2
      vertex 44.99 10.77 0
      vertex 44.9264 9.75856 0
    endloop
  endfacet
  facet normal -0.982287 0.187382 0
    outer loop
      vertex 44.9264 9.75856 2
      vertex 44.9264 9.75856 0
      vertex 44.7365 8.76307 2
    endloop
  endfacet
  facet normal -0.982287 0.187382 0
    outer loop
      vertex 44.7365 8.76307 2
      vertex 44.9264 9.75856 0
      vertex 44.7365 8.76307 0
    endloop
  endfacet
  facet normal -0.951057 0.309017 0
    outer loop
      vertex 44.7365 8.76307 2
      vertex 44.7365 8.76307 0
      vertex 44.4233 7.79923 2
    endloop
  endfacet
  facet normal -0.951057 0.309017 0
    outer loop
      vertex 44.4233 7.79923 2
      vertex 44.7365 8.76307 0
      vertex 44.4233 7.79923 0
    endloop
  endfacet
  facet normal -0.904827 0.425779 0
    outer loop
      vertex 44.4233 7.79923 2
      vertex 44.4233 7.79923 0
      vertex 43.9918 6.88225 2
    endloop
  endfacet
  facet normal -0.904827 0.425779 0
    outer loop
      vertex 43.9918 6.88225 2
      vertex 44.4233 7.79923 0
      vertex 43.9918 6.88225 0
    endloop
  endfacet
  facet normal -0.844328 0.535827 0
    outer loop
      vertex 43.9918 6.88225 2
      vertex 43.9918 6.88225 0
      vertex 43.4488 6.02657 2
    endloop
  endfacet
  facet normal -0.844328 0.535827 0
    outer loop
      vertex 43.4488 6.02657 2
      vertex 43.9918 6.88225 0
      vertex 43.4488 6.02657 0
    endloop
  endfacet
  facet normal -0.770513 0.637424 0
    outer loop
      vertex 43.4488 6.02657 2
      vertex 43.4488 6.02657 0
      vertex 42.8028 5.24571 2
    endloop
  endfacet
  facet normal -0.770513 0.637424 0
    outer loop
      vertex 42.8028 5.24571 2
      vertex 43.4488 6.02657 0
      vertex 42.8028 5.24571 0
    endloop
  endfacet
  facet normal -0.684547 0.728968 0
    outer loop
      vertex 42.8028 5.24571 2
      vertex 42.8028 5.24571 0
      vertex 42.064 4.55196 2
    endloop
  endfacet
  facet normal -0.684547 0.728968 0
    outer loop
      vertex 42.064 4.55196 2
      vertex 42.8028 5.24571 0
      vertex 42.064 4.55196 0
    endloop
  endfacet
  facet normal -0.587785 0.809017 0
    outer loop
      vertex 42.064 4.55196 2
      vertex 42.064 4.55196 0
      vertex 41.2441 3.95627 2
    endloop
  endfacet
  facet normal -0.587785 0.809017 0
    outer loop
      vertex 41.2441 3.95627 2
      vertex 42.064 4.55196 0
      vertex 41.2441 3.95627 0
    endloop
  endfacet
  facet normal -0.481754 0.876307 0
    outer loop
      vertex 41.2441 3.95627 2
      vertex 41.2441 3.95627 0
      vertex 40.356 3.46805 2
    endloop
  endfacet
  facet normal -0.481754 0.876307 0
    outer loop
      vertex 40.356 3.46805 2
      vertex 41.2441 3.95627 0
      vertex 40.356 3.46805 0
    endloop
  endfacet
  facet normal -0.368125 0.929776 0
    outer loop
      vertex 40.356 3.46805 2
      vertex 40.356 3.46805 0
      vertex 39.4138 3.09497 2
    endloop
  endfacet
  facet normal -0.368125 0.929776 0
    outer loop
      vertex 39.4138 3.09497 2
      vertex 40.356 3.46805 0
      vertex 39.4138 3.09497 0
    endloop
  endfacet
  facet normal -0.24869 0.968583 0
    outer loop
      vertex 39.4138 3.09497 2
      vertex 39.4138 3.09497 0
      vertex 38.4322 2.84294 2
    endloop
  endfacet
  facet normal -0.24869 0.968583 0
    outer loop
      vertex 38.4322 2.84294 2
      vertex 39.4138 3.09497 0
      vertex 38.4322 2.84294 0
    endloop
  endfacet
  facet normal -0.125334 0.992115 0
    outer loop
      vertex 38.4322 2.84294 2
      vertex 38.4322 2.84294 0
      vertex 37.4267 2.71592 2
    endloop
  endfacet
  facet normal -0.125334 0.992115 0
    outer loop
      vertex 37.4267 2.71592 2
      vertex 38.4322 2.84294 0
      vertex 37.4267 2.71592 0
    endloop
  endfacet
  facet normal 0 1 0
    outer loop
      vertex 37.4267 2.71592 2
      vertex 37.4267 2.71592 0
      vertex 36.4133 2.71592 2
    endloop
  endfacet
  facet normal 0 1 -0
    outer loop
      vertex 36.4133 2.71592 2
      vertex 37.4267 2.71592 0
      vertex 36.4133 2.71592 0
    endloop
  endfacet
  facet normal 0.125334 0.992115 -0
    outer loop
      vertex 36.4133 2.71592 2
      vertex 36.4133 2.71592 0
      vertex 35.4078 2.84294 2
    endloop
  endfacet
  facet normal 0.125334 0.992115 -0
    outer loop
      vertex 35.4078 2.84294 2
      vertex 36.4133 2.71592 0
      vertex 35.4078 2.84294 0
    endloop
  endfacet
  facet normal 0.24869 0.968583 -0
    outer loop
      vertex 35.4078 2.84294 2
      vertex 35.4078 2.84294 0
      vertex 34.4262 3.09497 2
    endloop
  endfacet
  facet normal 0.24869 0.968583 -0
    outer loop
      vertex 34.4262 3.09497 2
      vertex 35.4078 2.84294 0
      vertex 34.4262 3.09497 0
    endloop
  endfacet
  facet normal 0.368125 0.929776 -0
    outer loop
      vertex 34.4262 3.09497 2
      vertex 34.4262 3.09497 0
      vertex 33.484 3.46805 2
    endloop
  endfacet
  facet normal 0.368125 0.929776 -0
    outer loop
      vertex 33.484 3.46805 2
      vertex 34.4262 3.09497 0
      vertex 33.484 3.46805 0
    endloop
  endfacet
  facet normal 0.481754 0.876307 -0
    outer loop
      vertex 33.484 3.46805 2
      vertex 33.484 3.46805 0
      vertex 32.5959 3.95627 2
    endloop
  endfacet
  facet normal 0.481754 0.876307 -0
    outer loop
      vertex 32.5959 3.95627 2
      vertex 33.484 3.46805 0
      vertex 32.5959 3.95627 0
    endloop
  endfacet
  facet normal 0.587785 0.809017 -0
    outer loop
      vertex 32.5959 3.95627 2
      vertex 32.5959 3.95627 0
      vertex 31.776 4.55196 2
    endloop
  endfacet
  facet normal 0.587785 0.809017 -0
    outer loop
      vertex 31.776 4.55196 2
      vertex 32.5959 3.95627 0
      vertex 31.776 4.55196 0
    endloop
  endfacet
  facet normal 0.684547 0.728968 -0
    outer loop
      vertex 31.776 4.55196 2
      vertex 31.776 4.55196 0
      vertex 31.0372 5.24571 2
    endloop
  endfacet
  facet normal 0.684547 0.728968 -0
    outer loop
      vertex 31.0372 5.24571 2
      vertex 31.776 4.55196 0
      vertex 31.0372 5.24571 0
    endloop
  endfacet
  facet normal 0.770513 0.637424 0
    outer loop
      vertex 30.3912 6.02657 2
      vertex 31.0372 5.24571 2
      vertex 31.0372 5.24571 0
    endloop
  endfacet
  facet normal 0.770513 0.637424 0
    outer loop
      vertex 30.3912 6.02657 0
      vertex 30.3912 6.02657 2
      vertex 31.0372 5.24571 0
    endloop
  endfacet
  facet normal 0.844328 0.535827 0
    outer loop
      vertex 29.8482 6.88225 2
      vertex 30.3912 6.02657 2
      vertex 30.3912 6.02657 0
    endloop
  endfacet
  facet normal 0.844328 0.535827 0
    outer loop
      vertex 29.8482 6.88225 0
      vertex 29.8482 6.88225 2
      vertex 30.3912 6.02657 0
    endloop
  endfacet
  facet normal 0.904827 0.425779 0
    outer loop
      vertex 29.4167 7.79923 2
      vertex 29.8482 6.88225 2
      vertex 29.8482 6.88225 0
    endloop
  endfacet
  facet normal 0.904827 0.425779 0
    outer loop
      vertex 29.4167 7.79923 0
      vertex 29.4167 7.79923 2
      vertex 29.8482 6.88225 0
    endloop
  endfacet
  facet normal 0.951057 0.309017 0
    outer loop
      vertex 29.1035 8.76307 2
      vertex 29.4167 7.79923 2
      vertex 29.4167 7.79923 0
    endloop
  endfacet
  facet normal 0.951057 0.309017 0
    outer loop
      vertex 29.1035 8.76307 0
      vertex 29.1035 8.76307 2
      vertex 29.4167 7.79923 0
    endloop
  endfacet
  facet normal 0.982287 0.187382 0
    outer loop
      vertex 28.9136 9.75856 2
      vertex 29.1035 8.76307 2
      vertex 29.1035 8.76307 0
    endloop
  endfacet
  facet normal 0.982287 0.187382 0
    outer loop
      vertex 28.9136 9.75856 0
      vertex 28.9136 9.75856 2
      vertex 29.1035 8.76307 0
    endloop
  endfacet
endsolid OpenSCAD_Model
